<?xml version="1.0" encoding="UTF-8" standalone="no"?><svg xmlns="http://www.w3.org/2000/svg" xmlns:xlink="http://www.w3.org/1999/xlink" contentScriptType="application/ecmascript" contentStyleType="text/css" height="790px" preserveAspectRatio="none" style="width:735px;height:790px;" version="1.1" viewBox="0 0 735 790" width="735px" zoomAndPan="magnify"><defs><filter height="300%" id="f1tfv399l02gmu" width="300%" x="-1" y="-1"><feGaussianBlur result="blurOut" stdDeviation="2.0"/><feColorMatrix in="blurOut" result="blurOut2" type="matrix" values="0 0 0 0 0 0 0 0 0 0 0 0 0 0 0 0 0 0 .4 0"/><feOffset dx="4.0" dy="4.0" in="blurOut2" result="blurOut3"/><feBlend in="SourceGraphic" in2="blurOut3" mode="normal"/></filter></defs><g><!--class Widget--><rect fill="#FEFECE" filter="url(#f1tfv399l02gmu)" height="48" id="Widget" style="stroke: #A80036; stroke-width: 1.5;" width="70" x="342.5" y="8"/><ellipse cx="357.5" cy="24" fill="#ADD1B2" rx="11" ry="11" style="stroke: #A80036; stroke-width: 1.0;"/><path d="M360.2656,19.875 Q360.4219,19.6563 360.6094,19.5469 Q360.7969,19.4375 361.0156,19.4375 Q361.3906,19.4375 361.625,19.6953 Q361.8594,19.9531 361.8594,20.5625 L361.8594,22.0156 Q361.8594,22.625 361.625,22.8906 Q361.3906,23.1563 361.0156,23.1563 Q360.6719,23.1563 360.4688,22.9531 Q360.2656,22.7656 360.1563,22.25 Q360.1094,21.8906 359.9219,21.7031 Q359.5938,21.3281 358.9844,21.1094 Q358.375,20.8906 357.75,20.8906 Q356.9844,20.8906 356.3516,21.2188 Q355.7188,21.5469 355.2266,22.2969 Q354.7344,23.0469 354.7344,24.0781 L354.7344,25.1719 Q354.7344,26.4063 355.625,27.2266 Q356.5156,28.0469 358.1094,28.0469 Q359.0469,28.0469 359.7031,27.7969 Q360.0938,27.6406 360.5156,27.2031 Q360.7813,26.9375 360.9297,26.8594 Q361.0781,26.7813 361.2813,26.7813 Q361.6094,26.7813 361.8672,27.0391 Q362.125,27.2969 362.125,27.6406 Q362.125,27.9844 361.7813,28.3906 Q361.2813,28.9688 360.4844,29.2969 Q359.4063,29.75 358.1094,29.75 Q356.5938,29.75 355.3906,29.125 Q354.4063,28.625 353.7188,27.5547 Q353.0313,26.4844 353.0313,25.2031 L353.0313,24.0469 Q353.0313,22.7188 353.6484,21.5703 Q354.2656,20.4219 355.3594,19.8047 Q356.4531,19.1875 357.6875,19.1875 Q358.4219,19.1875 359.0703,19.3516 Q359.7188,19.5156 360.2656,19.875 Z "/><text fill="#000000" font-family="sans-serif" font-size="12" lengthAdjust="spacingAndGlyphs" textLength="38" x="371.5" y="28.9102">Widget</text><line style="stroke: #A80036; stroke-width: 1.5;" x1="343.5" x2="411.5" y1="40" y2="40"/><line style="stroke: #A80036; stroke-width: 1.5;" x1="343.5" x2="411.5" y1="48" y2="48"/><!--class InputWidget--><rect fill="#FEFECE" filter="url(#f1tfv399l02gmu)" height="200.1953" id="InputWidget" style="stroke: #A80036; stroke-width: 1.5;" width="128" x="313.5" y="116"/><ellipse cx="342.45" cy="132" fill="#ADD1B2" rx="11" ry="11" style="stroke: #A80036; stroke-width: 1.0;"/><path d="M345.2156,127.875 Q345.3719,127.6563 345.5594,127.5469 Q345.7469,127.4375 345.9656,127.4375 Q346.3406,127.4375 346.575,127.6953 Q346.8094,127.9531 346.8094,128.5625 L346.8094,130.0156 Q346.8094,130.625 346.575,130.8906 Q346.3406,131.1563 345.9656,131.1563 Q345.6219,131.1563 345.4188,130.9531 Q345.2156,130.7656 345.1063,130.25 Q345.0594,129.8906 344.8719,129.7031 Q344.5438,129.3281 343.9344,129.1094 Q343.325,128.8906 342.7,128.8906 Q341.9344,128.8906 341.3016,129.2188 Q340.6688,129.5469 340.1766,130.2969 Q339.6844,131.0469 339.6844,132.0781 L339.6844,133.1719 Q339.6844,134.4063 340.575,135.2266 Q341.4656,136.0469 343.0594,136.0469 Q343.9969,136.0469 344.6531,135.7969 Q345.0438,135.6406 345.4656,135.2031 Q345.7313,134.9375 345.8797,134.8594 Q346.0281,134.7813 346.2313,134.7813 Q346.5594,134.7813 346.8172,135.0391 Q347.075,135.2969 347.075,135.6406 Q347.075,135.9844 346.7313,136.3906 Q346.2313,136.9688 345.4344,137.2969 Q344.3563,137.75 343.0594,137.75 Q341.5438,137.75 340.3406,137.125 Q339.3563,136.625 338.6688,135.5547 Q337.9813,134.4844 337.9813,133.2031 L337.9813,132.0469 Q337.9813,130.7188 338.5984,129.5703 Q339.2156,128.4219 340.3094,127.8047 Q341.4031,127.1875 342.6375,127.1875 Q343.3719,127.1875 344.0203,127.3516 Q344.6688,127.5156 345.2156,127.875 Z "/><text fill="#000000" font-family="sans-serif" font-size="12" lengthAdjust="spacingAndGlyphs" textLength="65" x="359.55" y="136.9102">InputWidget</text><line style="stroke: #A80036; stroke-width: 1.5;" x1="314.5" x2="440.5" y1="148" y2="148"/><polygon fill="none" points="324.5,155.418,328.5,159.418,324.5,163.418,320.5,159.418" style="stroke: #B38D22; stroke-width: 1.0;"/><text fill="#000000" font-family="sans-serif" font-size="11" lengthAdjust="spacingAndGlyphs" textLength="26" x="333.5" y="163.4189">value</text><polygon fill="none" points="324.5,169.2539,328.5,173.2539,324.5,177.2539,320.5,173.2539" style="stroke: #B38D22; stroke-width: 1.0;"/><text fill="#000000" font-family="sans-serif" font-size="11" lengthAdjust="spacingAndGlyphs" textLength="52" x="333.5" y="177.2549">dom_value</text><line style="stroke: #A80036; stroke-width: 1.5;" x1="314.5" x2="440.5" y1="183.6719" y2="183.6719"/><text fill="#000000" font-family="sans-serif" font-size="11" lengthAdjust="spacingAndGlyphs" textLength="86" x="319.5" y="199.0908">formatted_value()</text><text fill="#000000" font-family="sans-serif" font-size="11" lengthAdjust="spacingAndGlyphs" textLength="81" x="319.5" y="212.9268">get_field_value()</text><text fill="#000000" font-family="sans-serif" font-size="11" lengthAdjust="spacingAndGlyphs" textLength="86" x="319.5" y="226.7627">data_changed(...)</text><text fill="#000000" font-family="sans-serif" font-size="11" lengthAdjust="spacingAndGlyphs" textLength="116" x="319.5" y="240.5986">widget_changed(event)</text><text fill="#000000" font-family="sans-serif" font-size="11" lengthAdjust="spacingAndGlyphs" textLength="0" x="322.5" y="254.4346"/><text fill="#000000" font-family="sans-serif" font-size="11" lengthAdjust="spacingAndGlyphs" textLength="61" x="319.5" y="268.2705">stringify(val)</text><text fill="#000000" font-family="sans-serif" font-size="11" lengthAdjust="spacingAndGlyphs" textLength="49" x="319.5" y="282.1064">parse(str)</text><text fill="#000000" font-family="sans-serif" font-size="11" lengthAdjust="spacingAndGlyphs" textLength="0" x="322.5" y="295.9424"/><text fill="#000000" font-family="sans-serif" font-size="11" lengthAdjust="spacingAndGlyphs" textLength="50" x="319.5" y="309.7783">handlers()</text><!--class TextInputWidget--><rect fill="#FEFECE" filter="url(#f1tfv399l02gmu)" height="48" id="TextInputWidget" style="stroke: #A80036; stroke-width: 1.5;" width="119" x="6" y="397"/><ellipse cx="21" cy="413" fill="#ADD1B2" rx="11" ry="11" style="stroke: #A80036; stroke-width: 1.0;"/><path d="M23.7656,408.875 Q23.9219,408.6563 24.1094,408.5469 Q24.2969,408.4375 24.5156,408.4375 Q24.8906,408.4375 25.125,408.6953 Q25.3594,408.9531 25.3594,409.5625 L25.3594,411.0156 Q25.3594,411.625 25.125,411.8906 Q24.8906,412.1563 24.5156,412.1563 Q24.1719,412.1563 23.9688,411.9531 Q23.7656,411.7656 23.6563,411.25 Q23.6094,410.8906 23.4219,410.7031 Q23.0938,410.3281 22.4844,410.1094 Q21.875,409.8906 21.25,409.8906 Q20.4844,409.8906 19.8516,410.2188 Q19.2188,410.5469 18.7266,411.2969 Q18.2344,412.0469 18.2344,413.0781 L18.2344,414.1719 Q18.2344,415.4063 19.125,416.2266 Q20.0156,417.0469 21.6094,417.0469 Q22.5469,417.0469 23.2031,416.7969 Q23.5938,416.6406 24.0156,416.2031 Q24.2813,415.9375 24.4297,415.8594 Q24.5781,415.7813 24.7813,415.7813 Q25.1094,415.7813 25.3672,416.0391 Q25.625,416.2969 25.625,416.6406 Q25.625,416.9844 25.2813,417.3906 Q24.7813,417.9688 23.9844,418.2969 Q22.9063,418.75 21.6094,418.75 Q20.0938,418.75 18.8906,418.125 Q17.9063,417.625 17.2188,416.5547 Q16.5313,415.4844 16.5313,414.2031 L16.5313,413.0469 Q16.5313,411.7188 17.1484,410.5703 Q17.7656,409.4219 18.8594,408.8047 Q19.9531,408.1875 21.1875,408.1875 Q21.9219,408.1875 22.5703,408.3516 Q23.2188,408.5156 23.7656,408.875 Z "/><text fill="#000000" font-family="sans-serif" font-size="12" lengthAdjust="spacingAndGlyphs" textLength="87" x="35" y="417.9102">TextInputWidget</text><line style="stroke: #A80036; stroke-width: 1.5;" x1="7" x2="124" y1="429" y2="429"/><line style="stroke: #A80036; stroke-width: 1.5;" x1="7" x2="124" y1="437" y2="437"/><!--class DurationWidget--><rect fill="#FEFECE" filter="url(#f1tfv399l02gmu)" height="48" id="DurationWidget" style="stroke: #A80036; stroke-width: 1.5;" width="117" x="160" y="397"/><ellipse cx="175" cy="413" fill="#ADD1B2" rx="11" ry="11" style="stroke: #A80036; stroke-width: 1.0;"/><path d="M177.7656,408.875 Q177.9219,408.6563 178.1094,408.5469 Q178.2969,408.4375 178.5156,408.4375 Q178.8906,408.4375 179.125,408.6953 Q179.3594,408.9531 179.3594,409.5625 L179.3594,411.0156 Q179.3594,411.625 179.125,411.8906 Q178.8906,412.1563 178.5156,412.1563 Q178.1719,412.1563 177.9688,411.9531 Q177.7656,411.7656 177.6563,411.25 Q177.6094,410.8906 177.4219,410.7031 Q177.0938,410.3281 176.4844,410.1094 Q175.875,409.8906 175.25,409.8906 Q174.4844,409.8906 173.8516,410.2188 Q173.2188,410.5469 172.7266,411.2969 Q172.2344,412.0469 172.2344,413.0781 L172.2344,414.1719 Q172.2344,415.4063 173.125,416.2266 Q174.0156,417.0469 175.6094,417.0469 Q176.5469,417.0469 177.2031,416.7969 Q177.5938,416.6406 178.0156,416.2031 Q178.2813,415.9375 178.4297,415.8594 Q178.5781,415.7813 178.7813,415.7813 Q179.1094,415.7813 179.3672,416.0391 Q179.625,416.2969 179.625,416.6406 Q179.625,416.9844 179.2813,417.3906 Q178.7813,417.9688 177.9844,418.2969 Q176.9063,418.75 175.6094,418.75 Q174.0938,418.75 172.8906,418.125 Q171.9063,417.625 171.2188,416.5547 Q170.5313,415.4844 170.5313,414.2031 L170.5313,413.0469 Q170.5313,411.7188 171.1484,410.5703 Q171.7656,409.4219 172.8594,408.8047 Q173.9531,408.1875 175.1875,408.1875 Q175.9219,408.1875 176.5703,408.3516 Q177.2188,408.5156 177.7656,408.875 Z "/><text fill="#000000" font-family="sans-serif" font-size="12" lengthAdjust="spacingAndGlyphs" textLength="85" x="189" y="417.9102">DurationWidget</text><line style="stroke: #A80036; stroke-width: 1.5;" x1="161" x2="276" y1="429" y2="429"/><line style="stroke: #A80036; stroke-width: 1.5;" x1="161" x2="276" y1="437" y2="437"/><!--class RadioInputWidget--><rect fill="#FEFECE" filter="url(#f1tfv399l02gmu)" height="61.8359" id="RadioInputWidget" style="stroke: #A80036; stroke-width: 1.5;" width="130" x="312.5" y="390"/><ellipse cx="327.5" cy="406" fill="#ADD1B2" rx="11" ry="11" style="stroke: #A80036; stroke-width: 1.0;"/><path d="M330.2656,401.875 Q330.4219,401.6563 330.6094,401.5469 Q330.7969,401.4375 331.0156,401.4375 Q331.3906,401.4375 331.625,401.6953 Q331.8594,401.9531 331.8594,402.5625 L331.8594,404.0156 Q331.8594,404.625 331.625,404.8906 Q331.3906,405.1563 331.0156,405.1563 Q330.6719,405.1563 330.4688,404.9531 Q330.2656,404.7656 330.1563,404.25 Q330.1094,403.8906 329.9219,403.7031 Q329.5938,403.3281 328.9844,403.1094 Q328.375,402.8906 327.75,402.8906 Q326.9844,402.8906 326.3516,403.2188 Q325.7188,403.5469 325.2266,404.2969 Q324.7344,405.0469 324.7344,406.0781 L324.7344,407.1719 Q324.7344,408.4063 325.625,409.2266 Q326.5156,410.0469 328.1094,410.0469 Q329.0469,410.0469 329.7031,409.7969 Q330.0938,409.6406 330.5156,409.2031 Q330.7813,408.9375 330.9297,408.8594 Q331.0781,408.7813 331.2813,408.7813 Q331.6094,408.7813 331.8672,409.0391 Q332.125,409.2969 332.125,409.6406 Q332.125,409.9844 331.7813,410.3906 Q331.2813,410.9688 330.4844,411.2969 Q329.4063,411.75 328.1094,411.75 Q326.5938,411.75 325.3906,411.125 Q324.4063,410.625 323.7188,409.5547 Q323.0313,408.4844 323.0313,407.2031 L323.0313,406.0469 Q323.0313,404.7188 323.6484,403.5703 Q324.2656,402.4219 325.3594,401.8047 Q326.4531,401.1875 327.6875,401.1875 Q328.4219,401.1875 329.0703,401.3516 Q329.7188,401.5156 330.2656,401.875 Z "/><text fill="#000000" font-family="sans-serif" font-size="12" lengthAdjust="spacingAndGlyphs" textLength="98" x="341.5" y="410.9102">RadioInputWidget</text><line style="stroke: #A80036; stroke-width: 1.5;" x1="313.5" x2="441.5" y1="422" y2="422"/><polygon fill="none" points="323.5,429.418,327.5,433.418,323.5,437.418,319.5,433.418" style="stroke: #B38D22; stroke-width: 1.0;"/><text fill="#000000" font-family="sans-serif" font-size="11" lengthAdjust="spacingAndGlyphs" textLength="41" x="332.5" y="437.4189">checked</text><line style="stroke: #A80036; stroke-width: 1.5;" x1="313.5" x2="441.5" y1="443.8359" y2="443.8359"/><!--class SelectWidget--><rect fill="#FEFECE" filter="url(#f1tfv399l02gmu)" height="89.5078" id="SelectWidget" style="stroke: #A80036; stroke-width: 1.5;" width="104" x="477.5" y="376"/><ellipse cx="492.5" cy="392" fill="#ADD1B2" rx="11" ry="11" style="stroke: #A80036; stroke-width: 1.0;"/><path d="M495.2656,387.875 Q495.4219,387.6563 495.6094,387.5469 Q495.7969,387.4375 496.0156,387.4375 Q496.3906,387.4375 496.625,387.6953 Q496.8594,387.9531 496.8594,388.5625 L496.8594,390.0156 Q496.8594,390.625 496.625,390.8906 Q496.3906,391.1563 496.0156,391.1563 Q495.6719,391.1563 495.4688,390.9531 Q495.2656,390.7656 495.1563,390.25 Q495.1094,389.8906 494.9219,389.7031 Q494.5938,389.3281 493.9844,389.1094 Q493.375,388.8906 492.75,388.8906 Q491.9844,388.8906 491.3516,389.2188 Q490.7188,389.5469 490.2266,390.2969 Q489.7344,391.0469 489.7344,392.0781 L489.7344,393.1719 Q489.7344,394.4063 490.625,395.2266 Q491.5156,396.0469 493.1094,396.0469 Q494.0469,396.0469 494.7031,395.7969 Q495.0938,395.6406 495.5156,395.2031 Q495.7813,394.9375 495.9297,394.8594 Q496.0781,394.7813 496.2813,394.7813 Q496.6094,394.7813 496.8672,395.0391 Q497.125,395.2969 497.125,395.6406 Q497.125,395.9844 496.7813,396.3906 Q496.2813,396.9688 495.4844,397.2969 Q494.4063,397.75 493.1094,397.75 Q491.5938,397.75 490.3906,397.125 Q489.4063,396.625 488.7188,395.5547 Q488.0313,394.4844 488.0313,393.2031 L488.0313,392.0469 Q488.0313,390.7188 488.6484,389.5703 Q489.2656,388.4219 490.3594,387.8047 Q491.4531,387.1875 492.6875,387.1875 Q493.4219,387.1875 494.0703,387.3516 Q494.7188,387.5156 495.2656,387.875 Z "/><text fill="#000000" font-family="sans-serif" font-size="12" lengthAdjust="spacingAndGlyphs" textLength="72" x="506.5" y="396.9102">SelectWidget</text><line style="stroke: #A80036; stroke-width: 1.5;" x1="478.5" x2="580.5" y1="408" y2="408"/><polygon fill="none" points="488.5,415.418,492.5,419.418,488.5,423.418,484.5,419.418" style="stroke: #B38D22; stroke-width: 1.0;"/><text fill="#000000" font-family="sans-serif" font-size="11" lengthAdjust="spacingAndGlyphs" textLength="35" x="497.5" y="423.4189">options</text><polygon fill="none" points="488.5,429.2539,492.5,433.2539,488.5,437.2539,484.5,433.2539" style="stroke: #B38D22; stroke-width: 1.0;"/><text fill="#000000" font-family="sans-serif" font-size="11" lengthAdjust="spacingAndGlyphs" textLength="26" x="497.5" y="437.2549">value</text><polygon fill="none" points="488.5,443.0898,492.5,447.0898,488.5,451.0898,484.5,447.0898" style="stroke: #B38D22; stroke-width: 1.0;"/><text fill="#000000" font-family="sans-serif" font-size="11" lengthAdjust="spacingAndGlyphs" textLength="52" x="497.5" y="451.0908">dom_value</text><line style="stroke: #A80036; stroke-width: 1.5;" x1="478.5" x2="580.5" y1="457.5078" y2="457.5078"/><!--class RadioSelectWidget--><rect fill="#FEFECE" filter="url(#f1tfv399l02gmu)" height="89.5078" id="RadioSelectWidget" style="stroke: #A80036; stroke-width: 1.5;" width="137" x="461" y="526"/><ellipse cx="476" cy="542" fill="#ADD1B2" rx="11" ry="11" style="stroke: #A80036; stroke-width: 1.0;"/><path d="M478.7656,537.875 Q478.9219,537.6563 479.1094,537.5469 Q479.2969,537.4375 479.5156,537.4375 Q479.8906,537.4375 480.125,537.6953 Q480.3594,537.9531 480.3594,538.5625 L480.3594,540.0156 Q480.3594,540.625 480.125,540.8906 Q479.8906,541.1563 479.5156,541.1563 Q479.1719,541.1563 478.9688,540.9531 Q478.7656,540.7656 478.6563,540.25 Q478.6094,539.8906 478.4219,539.7031 Q478.0938,539.3281 477.4844,539.1094 Q476.875,538.8906 476.25,538.8906 Q475.4844,538.8906 474.8516,539.2188 Q474.2188,539.5469 473.7266,540.2969 Q473.2344,541.0469 473.2344,542.0781 L473.2344,543.1719 Q473.2344,544.4063 474.125,545.2266 Q475.0156,546.0469 476.6094,546.0469 Q477.5469,546.0469 478.2031,545.7969 Q478.5938,545.6406 479.0156,545.2031 Q479.2813,544.9375 479.4297,544.8594 Q479.5781,544.7813 479.7813,544.7813 Q480.1094,544.7813 480.3672,545.0391 Q480.625,545.2969 480.625,545.6406 Q480.625,545.9844 480.2813,546.3906 Q479.7813,546.9688 478.9844,547.2969 Q477.9063,547.75 476.6094,547.75 Q475.0938,547.75 473.8906,547.125 Q472.9063,546.625 472.2188,545.5547 Q471.5313,544.4844 471.5313,543.2031 L471.5313,542.0469 Q471.5313,540.7188 472.1484,539.5703 Q472.7656,538.4219 473.8594,537.8047 Q474.9531,537.1875 476.1875,537.1875 Q476.9219,537.1875 477.5703,537.3516 Q478.2188,537.5156 478.7656,537.875 Z "/><text fill="#000000" font-family="sans-serif" font-size="12" lengthAdjust="spacingAndGlyphs" textLength="105" x="490" y="546.9102">RadioSelectWidget</text><line style="stroke: #A80036; stroke-width: 1.5;" x1="462" x2="597" y1="558" y2="558"/><polygon fill="none" points="472,565.418,476,569.418,472,573.418,468,569.418" style="stroke: #B38D22; stroke-width: 1.0;"/><text fill="#000000" font-family="sans-serif" font-size="11" lengthAdjust="spacingAndGlyphs" textLength="52" x="481" y="573.4189">dom_value</text><line style="stroke: #A80036; stroke-width: 1.5;" x1="462" x2="597" y1="579.8359" y2="579.8359"/><text fill="#000000" font-family="sans-serif" font-size="11" lengthAdjust="spacingAndGlyphs" textLength="81" x="467" y="595.2549">rebuild_options()</text><text fill="#000000" font-family="sans-serif" font-size="11" lengthAdjust="spacingAndGlyphs" textLength="50" x="467" y="609.0908">handlers()</text><!--class CheckboxSelectWidget--><rect fill="#FEFECE" filter="url(#f1tfv399l02gmu)" height="103.3438" id="CheckboxSelectWidget" style="stroke: #A80036; stroke-width: 1.5;" width="158" x="450.5" y="676"/><ellipse cx="465.5" cy="692" fill="#ADD1B2" rx="11" ry="11" style="stroke: #A80036; stroke-width: 1.0;"/><path d="M468.2656,687.875 Q468.4219,687.6563 468.6094,687.5469 Q468.7969,687.4375 469.0156,687.4375 Q469.3906,687.4375 469.625,687.6953 Q469.8594,687.9531 469.8594,688.5625 L469.8594,690.0156 Q469.8594,690.625 469.625,690.8906 Q469.3906,691.1563 469.0156,691.1563 Q468.6719,691.1563 468.4688,690.9531 Q468.2656,690.7656 468.1563,690.25 Q468.1094,689.8906 467.9219,689.7031 Q467.5938,689.3281 466.9844,689.1094 Q466.375,688.8906 465.75,688.8906 Q464.9844,688.8906 464.3516,689.2188 Q463.7188,689.5469 463.2266,690.2969 Q462.7344,691.0469 462.7344,692.0781 L462.7344,693.1719 Q462.7344,694.4063 463.625,695.2266 Q464.5156,696.0469 466.1094,696.0469 Q467.0469,696.0469 467.7031,695.7969 Q468.0938,695.6406 468.5156,695.2031 Q468.7813,694.9375 468.9297,694.8594 Q469.0781,694.7813 469.2813,694.7813 Q469.6094,694.7813 469.8672,695.0391 Q470.125,695.2969 470.125,695.6406 Q470.125,695.9844 469.7813,696.3906 Q469.2813,696.9688 468.4844,697.2969 Q467.4063,697.75 466.1094,697.75 Q464.5938,697.75 463.3906,697.125 Q462.4063,696.625 461.7188,695.5547 Q461.0313,694.4844 461.0313,693.2031 L461.0313,692.0469 Q461.0313,690.7188 461.6484,689.5703 Q462.2656,688.4219 463.3594,687.8047 Q464.4531,687.1875 465.6875,687.1875 Q466.4219,687.1875 467.0703,687.3516 Q467.7188,687.5156 468.2656,687.875 Z "/><text fill="#000000" font-family="sans-serif" font-size="12" lengthAdjust="spacingAndGlyphs" textLength="126" x="479.5" y="696.9102">CheckboxSelectWidget</text><line style="stroke: #A80036; stroke-width: 1.5;" x1="451.5" x2="607.5" y1="708" y2="708"/><polygon fill="none" points="461.5,715.418,465.5,719.418,461.5,723.418,457.5,719.418" style="stroke: #B38D22; stroke-width: 1.0;"/><text fill="#000000" font-family="sans-serif" font-size="11" lengthAdjust="spacingAndGlyphs" textLength="52" x="470.5" y="723.4189">dom_value</text><line style="stroke: #A80036; stroke-width: 1.5;" x1="451.5" x2="607.5" y1="729.8359" y2="729.8359"/><text fill="#000000" font-family="sans-serif" font-size="11" lengthAdjust="spacingAndGlyphs" textLength="81" x="456.5" y="745.2549">rebuild_options()</text><text fill="#000000" font-family="sans-serif" font-size="11" lengthAdjust="spacingAndGlyphs" textLength="116" x="456.5" y="759.0908">widget_changed(event)</text><text fill="#000000" font-family="sans-serif" font-size="11" lengthAdjust="spacingAndGlyphs" textLength="50" x="456.5" y="772.9268">handlers()</text><!--class TriboolWidget--><rect fill="#FEFECE" filter="url(#f1tfv399l02gmu)" height="48" id="TriboolWidget" style="stroke: #A80036; stroke-width: 1.5;" width="108" x="616.5" y="397"/><ellipse cx="631.5" cy="413" fill="#ADD1B2" rx="11" ry="11" style="stroke: #A80036; stroke-width: 1.0;"/><path d="M634.2656,408.875 Q634.4219,408.6563 634.6094,408.5469 Q634.7969,408.4375 635.0156,408.4375 Q635.3906,408.4375 635.625,408.6953 Q635.8594,408.9531 635.8594,409.5625 L635.8594,411.0156 Q635.8594,411.625 635.625,411.8906 Q635.3906,412.1563 635.0156,412.1563 Q634.6719,412.1563 634.4688,411.9531 Q634.2656,411.7656 634.1563,411.25 Q634.1094,410.8906 633.9219,410.7031 Q633.5938,410.3281 632.9844,410.1094 Q632.375,409.8906 631.75,409.8906 Q630.9844,409.8906 630.3516,410.2188 Q629.7188,410.5469 629.2266,411.2969 Q628.7344,412.0469 628.7344,413.0781 L628.7344,414.1719 Q628.7344,415.4063 629.625,416.2266 Q630.5156,417.0469 632.1094,417.0469 Q633.0469,417.0469 633.7031,416.7969 Q634.0938,416.6406 634.5156,416.2031 Q634.7813,415.9375 634.9297,415.8594 Q635.0781,415.7813 635.2813,415.7813 Q635.6094,415.7813 635.8672,416.0391 Q636.125,416.2969 636.125,416.6406 Q636.125,416.9844 635.7813,417.3906 Q635.2813,417.9688 634.4844,418.2969 Q633.4063,418.75 632.1094,418.75 Q630.5938,418.75 629.3906,418.125 Q628.4063,417.625 627.7188,416.5547 Q627.0313,415.4844 627.0313,414.2031 L627.0313,413.0469 Q627.0313,411.7188 627.6484,410.5703 Q628.2656,409.4219 629.3594,408.8047 Q630.4531,408.1875 631.6875,408.1875 Q632.4219,408.1875 633.0703,408.3516 Q633.7188,408.5156 634.2656,408.875 Z "/><text fill="#000000" font-family="sans-serif" font-size="12" lengthAdjust="spacingAndGlyphs" textLength="76" x="645.5" y="417.9102">TriboolWidget</text><line style="stroke: #A80036; stroke-width: 1.5;" x1="617.5" x2="723.5" y1="429" y2="429"/><line style="stroke: #A80036; stroke-width: 1.5;" x1="617.5" x2="723.5" y1="437" y2="437"/><!--link Widget to InputWidget--><path d="M377.5,76.365 C377.5,88.41 377.5,102.006 377.5,115.855 " fill="none" id="Widget-InputWidget" style="stroke: #A80036; stroke-width: 1.0;"/><polygon fill="none" points="370.5,76.05,377.5,56.05,384.5,76.05,370.5,76.05" style="stroke: #A80036; stroke-width: 1.0;"/><!--link InputWidget to TextInputWidget--><path d="M296.416,269.756 C233.139,310.927 148.296,366.13 101.0577,396.865 " fill="none" id="InputWidget-TextInputWidget" style="stroke: #A80036; stroke-width: 1.0;"/><polygon fill="none" points="292.65,263.856,313.232,258.816,300.285,275.59,292.65,263.856" style="stroke: #A80036; stroke-width: 1.0;"/><!--link InputWidget to DurationWidget--><path d="M300.882,314.82 C277.013,345.295 252.797,376.212 236.856,396.565 " fill="none" id="InputWidget-DurationWidget" style="stroke: #A80036; stroke-width: 1.0;"/><polygon fill="none" points="295.444,310.412,313.287,298.983,306.465,319.044,295.444,310.412" style="stroke: #A80036; stroke-width: 1.0;"/><!--link InputWidget to RadioInputWidget--><path d="M377.5,336.125 C377.5,355.937 377.5,374.825 377.5,389.643 " fill="none" id="InputWidget-RadioInputWidget" style="stroke: #A80036; stroke-width: 1.0;"/><polygon fill="none" points="370.5,336.121,377.5,316.121,384.5,336.121,370.5,336.121" style="stroke: #A80036; stroke-width: 1.0;"/><!--link InputWidget to SelectWidget--><path d="M453.574,318.599 C468.658,338.744 483.739,358.885 496.438,375.845 " fill="none" id="InputWidget-SelectWidget" style="stroke: #A80036; stroke-width: 1.0;"/><polygon fill="none" points="447.905,322.707,441.521,302.502,459.112,314.316,447.905,322.707" style="stroke: #A80036; stroke-width: 1.0;"/><!--link SelectWidget to RadioSelectWidget--><path d="M529.5,486.372 C529.5,499.718 529.5,513.49 529.5,525.91 " fill="none" id="SelectWidget-RadioSelectWidget" style="stroke: #A80036; stroke-width: 1.0;"/><polygon fill="none" points="522.5,486.004,529.5,466.004,536.5,486.004,522.5,486.004" style="stroke: #A80036; stroke-width: 1.0;"/><!--link RadioSelectWidget to CheckboxSelectWidget--><path d="M529.5,636.379 C529.5,649.591 529.5,663.32 529.5,675.96 " fill="none" id="RadioSelectWidget-CheckboxSelectWidget" style="stroke: #A80036; stroke-width: 1.0;"/><polygon fill="none" points="522.5,636.274,529.5,616.273,536.5,636.273,522.5,636.274" style="stroke: #A80036; stroke-width: 1.0;"/><!--link InputWidget to TriboolWidget--><path d="M458.292,272.975 C517.226,313.807 594.053,367.035 637.243,396.959 " fill="none" id="InputWidget-TriboolWidget" style="stroke: #A80036; stroke-width: 1.0;"/><polygon fill="none" points="454.253,278.693,441.8,261.549,462.226,267.185,454.253,278.693" style="stroke: #A80036; stroke-width: 1.0;"/><!--
@startuml
Widget <|- - InputWidget
InputWidget <|- - TextInputWidget
InputWidget <|- - DurationWidget
InputWidget <|- - RadioInputWidget
InputWidget <|- - SelectWidget
SelectWidget <|- - RadioSelectWidget
RadioSelectWidget <|- - CheckboxSelectWidget
InputWidget <|- - TriboolWidget

class InputWidget {
    #value
    #dom_value

    formatted_value()
    get_field_value()
    data_changed(...)
    widget_changed(event)

    stringify(val)
    parse(str)
    
    handlers()
}

class RadioInputWidget {
    #checked
}

class SelectWidget {
    #options
    #value
    #dom_value
}

class RadioSelectWidget {
    #dom_value

    rebuild_options()
    handlers()
}


class CheckboxSelectWidget {
    #dom_value

    rebuild_options()
    widget_changed(event)
    handlers()
}
@enduml

PlantUML version 1.2018.11(Sat Sep 22 18:43:53 CEST 2018)
(GPL source distribution)
Java Runtime: Java(TM) SE Runtime Environment
JVM: Java HotSpot(TM) Client VM
Java Version: 1.8.0_221-b11
Operating System: Windows 10
OS Version: 10.0
Default Encoding: Cp1252
Language: en
Country: US
--></g></svg>