<?xml version="1.0" encoding="UTF-8" standalone="no"?><svg xmlns="http://www.w3.org/2000/svg" xmlns:xlink="http://www.w3.org/1999/xlink" contentScriptType="application/ecmascript" contentStyleType="text/css" height="1026px" preserveAspectRatio="none" style="width:167px;height:1026px;" version="1.1" viewBox="0 0 167 1026" width="167px" zoomAndPan="magnify"><defs><filter height="300%" id="f1e1t2hgsszzyu" width="300%" x="-1" y="-1"><feGaussianBlur result="blurOut" stdDeviation="2.0"/><feColorMatrix in="blurOut" result="blurOut2" type="matrix" values="0 0 0 0 0 0 0 0 0 0 0 0 0 0 0 0 0 0 .4 0"/><feOffset dx="4.0" dy="4.0" in="blurOut2" result="blurOut3"/><feBlend in="SourceGraphic" in2="blurOut3" mode="normal"/></filter></defs><g><!--class Class--><rect fill="#FEFECE" filter="url(#f1e1t2hgsszzyu)" height="48" id="Class" style="stroke: #A80036; stroke-width: 1.5;" width="65" x="48.5" y="8"/><ellipse cx="63.5" cy="24" fill="#ADD1B2" rx="11" ry="11" style="stroke: #A80036; stroke-width: 1.0;"/><path d="M66.2656,19.875 Q66.4219,19.6563 66.6094,19.5469 Q66.7969,19.4375 67.0156,19.4375 Q67.3906,19.4375 67.625,19.6953 Q67.8594,19.9531 67.8594,20.5625 L67.8594,22.0156 Q67.8594,22.625 67.625,22.8906 Q67.3906,23.1563 67.0156,23.1563 Q66.6719,23.1563 66.4688,22.9531 Q66.2656,22.7656 66.1563,22.25 Q66.1094,21.8906 65.9219,21.7031 Q65.5938,21.3281 64.9844,21.1094 Q64.375,20.8906 63.75,20.8906 Q62.9844,20.8906 62.3516,21.2188 Q61.7188,21.5469 61.2266,22.2969 Q60.7344,23.0469 60.7344,24.0781 L60.7344,25.1719 Q60.7344,26.4063 61.625,27.2266 Q62.5156,28.0469 64.1094,28.0469 Q65.0469,28.0469 65.7031,27.7969 Q66.0938,27.6406 66.5156,27.2031 Q66.7813,26.9375 66.9297,26.8594 Q67.0781,26.7813 67.2813,26.7813 Q67.6094,26.7813 67.8672,27.0391 Q68.125,27.2969 68.125,27.6406 Q68.125,27.9844 67.7813,28.3906 Q67.2813,28.9688 66.4844,29.2969 Q65.4063,29.75 64.1094,29.75 Q62.5938,29.75 61.3906,29.125 Q60.4063,28.625 59.7188,27.5547 Q59.0313,26.4844 59.0313,25.2031 L59.0313,24.0469 Q59.0313,22.7188 59.6484,21.5703 Q60.2656,20.4219 61.3594,19.8047 Q62.4531,19.1875 63.6875,19.1875 Q64.4219,19.1875 65.0703,19.3516 Q65.7188,19.5156 66.2656,19.875 Z "/><text fill="#000000" font-family="sans-serif" font-size="12" lengthAdjust="spacingAndGlyphs" textLength="33" x="77.5" y="28.9102">Class</text><line style="stroke: #A80036; stroke-width: 1.5;" x1="49.5" x2="112.5" y1="40" y2="40"/><line style="stroke: #A80036; stroke-width: 1.5;" x1="49.5" x2="112.5" y1="48" y2="48"/><!--class BaseWidget--><rect fill="#FEFECE" filter="url(#f1e1t2hgsszzyu)" height="89.5078" id="BaseWidget" style="stroke: #A80036; stroke-width: 1.5;" width="99" x="31.5" y="116"/><ellipse cx="46.5" cy="132" fill="#ADD1B2" rx="11" ry="11" style="stroke: #A80036; stroke-width: 1.0;"/><path d="M49.2656,127.875 Q49.4219,127.6563 49.6094,127.5469 Q49.7969,127.4375 50.0156,127.4375 Q50.3906,127.4375 50.625,127.6953 Q50.8594,127.9531 50.8594,128.5625 L50.8594,130.0156 Q50.8594,130.625 50.625,130.8906 Q50.3906,131.1563 50.0156,131.1563 Q49.6719,131.1563 49.4688,130.9531 Q49.2656,130.7656 49.1563,130.25 Q49.1094,129.8906 48.9219,129.7031 Q48.5938,129.3281 47.9844,129.1094 Q47.375,128.8906 46.75,128.8906 Q45.9844,128.8906 45.3516,129.2188 Q44.7188,129.5469 44.2266,130.2969 Q43.7344,131.0469 43.7344,132.0781 L43.7344,133.1719 Q43.7344,134.4063 44.625,135.2266 Q45.5156,136.0469 47.1094,136.0469 Q48.0469,136.0469 48.7031,135.7969 Q49.0938,135.6406 49.5156,135.2031 Q49.7813,134.9375 49.9297,134.8594 Q50.0781,134.7813 50.2813,134.7813 Q50.6094,134.7813 50.8672,135.0391 Q51.125,135.2969 51.125,135.6406 Q51.125,135.9844 50.7813,136.3906 Q50.2813,136.9688 49.4844,137.2969 Q48.4063,137.75 47.1094,137.75 Q45.5938,137.75 44.3906,137.125 Q43.4063,136.625 42.7188,135.5547 Q42.0313,134.4844 42.0313,133.2031 L42.0313,132.0469 Q42.0313,130.7188 42.6484,129.5703 Q43.2656,128.4219 44.3594,127.8047 Q45.4531,127.1875 46.6875,127.1875 Q47.4219,127.1875 48.0703,127.3516 Q48.7188,127.5156 49.2656,127.875 Z "/><text fill="#000000" font-family="sans-serif" font-size="12" lengthAdjust="spacingAndGlyphs" textLength="67" x="60.5" y="136.9102">BaseWidget</text><line style="stroke: #A80036; stroke-width: 1.5;" x1="32.5" x2="129.5" y1="148" y2="148"/><text fill="#000000" font-family="sans-serif" font-size="11" lengthAdjust="spacingAndGlyphs" textLength="24" x="37.5" y="163.4189">state</text><line style="stroke: #A80036; stroke-width: 1.5;" x1="32.5" x2="129.5" y1="169.8359" y2="169.8359"/><text fill="#000000" font-family="sans-serif" font-size="11" lengthAdjust="spacingAndGlyphs" textLength="20" x="37.5" y="185.2549">on()</text><text fill="#000000" font-family="sans-serif" font-size="11" lengthAdjust="spacingAndGlyphs" textLength="39" x="37.5" y="199.0908">trigger()</text><!--class UIWidget--><rect fill="#FEFECE" filter="url(#f1e1t2hgsszzyu)" height="287.2109" id="UIWidget" style="stroke: #A80036; stroke-width: 1.5;" width="150" x="6" y="266"/><ellipse cx="51.75" cy="282" fill="#ADD1B2" rx="11" ry="11" style="stroke: #A80036; stroke-width: 1.0;"/><path d="M54.5156,277.875 Q54.6719,277.6563 54.8594,277.5469 Q55.0469,277.4375 55.2656,277.4375 Q55.6406,277.4375 55.875,277.6953 Q56.1094,277.9531 56.1094,278.5625 L56.1094,280.0156 Q56.1094,280.625 55.875,280.8906 Q55.6406,281.1563 55.2656,281.1563 Q54.9219,281.1563 54.7188,280.9531 Q54.5156,280.7656 54.4063,280.25 Q54.3594,279.8906 54.1719,279.7031 Q53.8438,279.3281 53.2344,279.1094 Q52.625,278.8906 52,278.8906 Q51.2344,278.8906 50.6016,279.2188 Q49.9688,279.5469 49.4766,280.2969 Q48.9844,281.0469 48.9844,282.0781 L48.9844,283.1719 Q48.9844,284.4063 49.875,285.2266 Q50.7656,286.0469 52.3594,286.0469 Q53.2969,286.0469 53.9531,285.7969 Q54.3438,285.6406 54.7656,285.2031 Q55.0313,284.9375 55.1797,284.8594 Q55.3281,284.7813 55.5313,284.7813 Q55.8594,284.7813 56.1172,285.0391 Q56.375,285.2969 56.375,285.6406 Q56.375,285.9844 56.0313,286.3906 Q55.5313,286.9688 54.7344,287.2969 Q53.6563,287.75 52.3594,287.75 Q50.8438,287.75 49.6406,287.125 Q48.6563,286.625 47.9688,285.5547 Q47.2813,284.4844 47.2813,283.2031 L47.2813,282.0469 Q47.2813,280.7188 47.8984,279.5703 Q48.5156,278.4219 49.6094,277.8047 Q50.7031,277.1875 51.9375,277.1875 Q52.6719,277.1875 53.3203,277.3516 Q53.9688,277.5156 54.5156,277.875 Z "/><text fill="#000000" font-family="sans-serif" font-size="12" lengthAdjust="spacingAndGlyphs" textLength="50" x="72.25" y="286.9102">UIWidget</text><line style="stroke: #A80036; stroke-width: 1.5;" x1="7" x2="155" y1="298" y2="298"/><polygon fill="none" points="17,323.2539,21,327.2539,17,331.2539,13,327.2539" style="stroke: #B38D22; stroke-width: 1.0;"/><text fill="#000000" font-family="sans-serif" font-size="11" lengthAdjust="spacingAndGlyphs" textLength="24" x="26" y="331.2549">node</text><line style="stroke: #A80036; stroke-width: 1.0; stroke-dasharray: 1.0,2.0;" x1="7" x2="56.5" y1="312.918" y2="312.918"/><text fill="#000000" font-family="sans-serif" font-size="11" lengthAdjust="spacingAndGlyphs" textLength="49" x="56.5" y="316.9189">properties</text><line style="stroke: #A80036; stroke-width: 1.0; stroke-dasharray: 1.0,2.0;" x1="105.5" x2="155" y1="312.918" y2="312.918"/><text fill="#000000" font-family="sans-serif" font-size="11" lengthAdjust="spacingAndGlyphs" textLength="28" x="12" y="362.9268">hide()</text><text fill="#000000" font-family="sans-serif" font-size="11" lengthAdjust="spacingAndGlyphs" textLength="36" x="12" y="376.7627">show()</text><text fill="#000000" font-family="sans-serif" font-size="11" lengthAdjust="spacingAndGlyphs" textLength="37" x="12" y="390.5986">toggle()</text><text fill="#000000" font-family="sans-serif" font-size="11" lengthAdjust="spacingAndGlyphs" textLength="67" x="12" y="404.4346">toggle_busy()</text><text fill="#000000" font-family="sans-serif" font-size="11" lengthAdjust="spacingAndGlyphs" textLength="76" x="12" y="418.2705">wiget() : jQuery</text><text fill="#000000" font-family="sans-serif" font-size="11" lengthAdjust="spacingAndGlyphs" textLength="46" x="12" y="432.1064">ready(fn)</text><text fill="#000000" font-family="sans-serif" font-size="11" lengthAdjust="spacingAndGlyphs" textLength="0" x="15" y="445.9424"/><text fill="#000000" font-family="sans-serif" font-size="11" lengthAdjust="spacingAndGlyphs" textLength="54" x="12" y="459.7783">construct()</text><text fill="#000000" font-family="sans-serif" font-size="11" lengthAdjust="spacingAndGlyphs" textLength="55" x="12" y="473.6143">draw(data)</text><text fill="#000000" font-family="sans-serif" font-size="11" lengthAdjust="spacingAndGlyphs" textLength="40" x="12" y="487.4502">reflow()</text><line style="stroke: #A80036; stroke-width: 1.0; stroke-dasharray: 1.0,2.0;" x1="7" x2="60.5" y1="344.5898" y2="344.5898"/><text fill="#000000" font-family="sans-serif" font-size="11" lengthAdjust="spacingAndGlyphs" textLength="41" x="60.5" y="348.5908">methods</text><line style="stroke: #A80036; stroke-width: 1.0; stroke-dasharray: 1.0,2.0;" x1="101.5" x2="155" y1="344.5898" y2="344.5898"/><text fill="#000000" font-family="sans-serif" font-size="11" lengthAdjust="spacingAndGlyphs" text-decoration="underline" textLength="122" x="12" y="519.1221">create_on(location, attrs)</text><line style="stroke: #000000; stroke-width: 1.0;" x1="12" x2="134" y1="521.1221" y2="521.1221"/><text fill="#000000" font-family="sans-serif" font-size="11" lengthAdjust="spacingAndGlyphs" text-decoration="underline" textLength="138" x="12" y="532.958">create_inside(location, attrs)</text><line style="stroke: #000000; stroke-width: 1.0;" x1="12" x2="150" y1="534.958" y2="534.958"/><text fill="#000000" font-family="sans-serif" font-size="11" lengthAdjust="spacingAndGlyphs" text-decoration="underline" textLength="124" x="12" y="546.7939">append_to(location, attrs)</text><line style="stroke: #000000; stroke-width: 1.0;" x1="12" x2="136" y1="548.7939" y2="548.7939"/><line style="stroke: #A80036; stroke-width: 1.0; stroke-dasharray: 1.0,2.0;" x1="7" x2="68" y1="500.7852" y2="500.7852"/><text fill="#000000" font-family="sans-serif" font-size="11" lengthAdjust="spacingAndGlyphs" textLength="26" x="68" y="504.7861">static</text><line style="stroke: #A80036; stroke-width: 1.0; stroke-dasharray: 1.0,2.0;" x1="94" x2="155" y1="500.7852" y2="500.7852"/><!--class DataWidget--><rect fill="#FEFECE" filter="url(#f1e1t2hgsszzyu)" height="135.0156" id="DataWidget" style="stroke: #A80036; stroke-width: 1.5;" width="98" x="32" y="613"/><ellipse cx="47.9" cy="629" fill="#ADD1B2" rx="11" ry="11" style="stroke: #A80036; stroke-width: 1.0;"/><path d="M50.6656,624.875 Q50.8219,624.6563 51.0094,624.5469 Q51.1969,624.4375 51.4156,624.4375 Q51.7906,624.4375 52.025,624.6953 Q52.2594,624.9531 52.2594,625.5625 L52.2594,627.0156 Q52.2594,627.625 52.025,627.8906 Q51.7906,628.1563 51.4156,628.1563 Q51.0719,628.1563 50.8688,627.9531 Q50.6656,627.7656 50.5563,627.25 Q50.5094,626.8906 50.3219,626.7031 Q49.9938,626.3281 49.3844,626.1094 Q48.775,625.8906 48.15,625.8906 Q47.3844,625.8906 46.7516,626.2188 Q46.1188,626.5469 45.6266,627.2969 Q45.1344,628.0469 45.1344,629.0781 L45.1344,630.1719 Q45.1344,631.4063 46.025,632.2266 Q46.9156,633.0469 48.5094,633.0469 Q49.4469,633.0469 50.1031,632.7969 Q50.4938,632.6406 50.9156,632.2031 Q51.1813,631.9375 51.3297,631.8594 Q51.4781,631.7813 51.6813,631.7813 Q52.0094,631.7813 52.2672,632.0391 Q52.525,632.2969 52.525,632.6406 Q52.525,632.9844 52.1813,633.3906 Q51.6813,633.9688 50.8844,634.2969 Q49.8063,634.75 48.5094,634.75 Q46.9938,634.75 45.7906,634.125 Q44.8063,633.625 44.1188,632.5547 Q43.4313,631.4844 43.4313,630.2031 L43.4313,629.0469 Q43.4313,627.7188 44.0484,626.5703 Q44.6656,625.4219 45.7594,624.8047 Q46.8531,624.1875 48.0875,624.1875 Q48.8219,624.1875 49.4703,624.3516 Q50.1188,624.5156 50.6656,624.875 Z "/><text fill="#000000" font-family="sans-serif" font-size="12" lengthAdjust="spacingAndGlyphs" textLength="64" x="62.1" y="633.9102">DataWidget</text><line style="stroke: #A80036; stroke-width: 1.5;" x1="33" x2="129" y1="645" y2="645"/><polygon fill="none" points="43,670.2539,47,674.2539,43,678.2539,39,674.2539" style="stroke: #B38D22; stroke-width: 1.0;"/><text fill="#000000" font-family="sans-serif" font-size="11" lengthAdjust="spacingAndGlyphs" textLength="21" x="52" y="678.2549">data</text><line style="stroke: #A80036; stroke-width: 1.0; stroke-dasharray: 1.0,2.0;" x1="33" x2="56.5" y1="659.918" y2="659.918"/><text fill="#000000" font-family="sans-serif" font-size="11" lengthAdjust="spacingAndGlyphs" textLength="49" x="56.5" y="663.9189">properties</text><line style="stroke: #A80036; stroke-width: 1.0; stroke-dasharray: 1.0,2.0;" x1="105.5" x2="129" y1="659.918" y2="659.918"/><ellipse cx="43" cy="706.9258" fill="none" rx="3" ry="3" style="stroke: #038048; stroke-width: 1.0;"/><text fill="#000000" font-family="sans-serif" font-size="11" lengthAdjust="spacingAndGlyphs" textLength="36" x="52" y="709.9268">change</text><line style="stroke: #A80036; stroke-width: 1.0; stroke-dasharray: 1.0,2.0;" x1="33" x2="64" y1="691.5898" y2="691.5898"/><text fill="#000000" font-family="sans-serif" font-size="11" lengthAdjust="spacingAndGlyphs" textLength="34" x="64" y="695.5908">signals</text><line style="stroke: #A80036; stroke-width: 1.0; stroke-dasharray: 1.0,2.0;" x1="98" x2="129" y1="691.5898" y2="691.5898"/><text fill="#000000" font-family="sans-serif" font-size="11" lengthAdjust="spacingAndGlyphs" textLength="86" x="38" y="741.5986">data_changed(...)</text><line style="stroke: #A80036; stroke-width: 1.0; stroke-dasharray: 1.0,2.0;" x1="33" x2="60.5" y1="723.2617" y2="723.2617"/><text fill="#000000" font-family="sans-serif" font-size="11" lengthAdjust="spacingAndGlyphs" textLength="41" x="60.5" y="727.2627">methods</text><line style="stroke: #A80036; stroke-width: 1.0; stroke-dasharray: 1.0,2.0;" x1="101.5" x2="129" y1="723.2617" y2="723.2617"/><!--class ServerWidget--><rect fill="#FEFECE" filter="url(#f1e1t2hgsszzyu)" height="99.3438" id="ServerWidget" style="stroke: #A80036; stroke-width: 1.5;" width="105" x="28.5" y="808"/><ellipse cx="43.5" cy="824" fill="#ADD1B2" rx="11" ry="11" style="stroke: #A80036; stroke-width: 1.0;"/><path d="M46.2656,819.875 Q46.4219,819.6563 46.6094,819.5469 Q46.7969,819.4375 47.0156,819.4375 Q47.3906,819.4375 47.625,819.6953 Q47.8594,819.9531 47.8594,820.5625 L47.8594,822.0156 Q47.8594,822.625 47.625,822.8906 Q47.3906,823.1563 47.0156,823.1563 Q46.6719,823.1563 46.4688,822.9531 Q46.2656,822.7656 46.1563,822.25 Q46.1094,821.8906 45.9219,821.7031 Q45.5938,821.3281 44.9844,821.1094 Q44.375,820.8906 43.75,820.8906 Q42.9844,820.8906 42.3516,821.2188 Q41.7188,821.5469 41.2266,822.2969 Q40.7344,823.0469 40.7344,824.0781 L40.7344,825.1719 Q40.7344,826.4063 41.625,827.2266 Q42.5156,828.0469 44.1094,828.0469 Q45.0469,828.0469 45.7031,827.7969 Q46.0938,827.6406 46.5156,827.2031 Q46.7813,826.9375 46.9297,826.8594 Q47.0781,826.7813 47.2813,826.7813 Q47.6094,826.7813 47.8672,827.0391 Q48.125,827.2969 48.125,827.6406 Q48.125,827.9844 47.7813,828.3906 Q47.2813,828.9688 46.4844,829.2969 Q45.4063,829.75 44.1094,829.75 Q42.5938,829.75 41.3906,829.125 Q40.4063,828.625 39.7188,827.5547 Q39.0313,826.4844 39.0313,825.2031 L39.0313,824.0469 Q39.0313,822.7188 39.6484,821.5703 Q40.2656,820.4219 41.3594,819.8047 Q42.4531,819.1875 43.6875,819.1875 Q44.4219,819.1875 45.0703,819.3516 Q45.7188,819.5156 46.2656,819.875 Z "/><text fill="#000000" font-family="sans-serif" font-size="12" lengthAdjust="spacingAndGlyphs" textLength="73" x="57.5" y="828.9102">ServerWidget</text><line style="stroke: #A80036; stroke-width: 1.5;" x1="29.5" x2="132.5" y1="840" y2="840"/><text fill="#000000" font-family="sans-serif" font-size="11" lengthAdjust="spacingAndGlyphs" textLength="30" x="34.5" y="855.4189">cache</text><text fill="#000000" font-family="sans-serif" font-size="11" lengthAdjust="spacingAndGlyphs" textLength="44" x="34.5" y="887.0908">refresh()</text><text fill="#000000" font-family="sans-serif" font-size="11" lengthAdjust="spacingAndGlyphs" textLength="86" x="34.5" y="900.9268">fetch_json_data()</text><line style="stroke: #A80036; stroke-width: 1.0; stroke-dasharray: 1.0,2.0;" x1="29.5" x2="60.5" y1="868.7539" y2="868.7539"/><text fill="#000000" font-family="sans-serif" font-size="11" lengthAdjust="spacingAndGlyphs" textLength="41" x="60.5" y="872.7549">methods</text><line style="stroke: #A80036; stroke-width: 1.0; stroke-dasharray: 1.0,2.0;" x1="101.5" x2="132.5" y1="868.7539" y2="868.7539"/><!--class Widget--><rect fill="#FEFECE" filter="url(#f1e1t2hgsszzyu)" height="48" id="Widget" style="stroke: #A80036; stroke-width: 1.5;" width="70" x="46" y="967"/><ellipse cx="61" cy="983" fill="#ADD1B2" rx="11" ry="11" style="stroke: #A80036; stroke-width: 1.0;"/><path d="M63.7656,978.875 Q63.9219,978.6563 64.1094,978.5469 Q64.2969,978.4375 64.5156,978.4375 Q64.8906,978.4375 65.125,978.6953 Q65.3594,978.9531 65.3594,979.5625 L65.3594,981.0156 Q65.3594,981.625 65.125,981.8906 Q64.8906,982.1563 64.5156,982.1563 Q64.1719,982.1563 63.9688,981.9531 Q63.7656,981.7656 63.6563,981.25 Q63.6094,980.8906 63.4219,980.7031 Q63.0938,980.3281 62.4844,980.1094 Q61.875,979.8906 61.25,979.8906 Q60.4844,979.8906 59.8516,980.2188 Q59.2188,980.5469 58.7266,981.2969 Q58.2344,982.0469 58.2344,983.0781 L58.2344,984.1719 Q58.2344,985.4063 59.125,986.2266 Q60.0156,987.0469 61.6094,987.0469 Q62.5469,987.0469 63.2031,986.7969 Q63.5938,986.6406 64.0156,986.2031 Q64.2813,985.9375 64.4297,985.8594 Q64.5781,985.7813 64.7813,985.7813 Q65.1094,985.7813 65.3672,986.0391 Q65.625,986.2969 65.625,986.6406 Q65.625,986.9844 65.2813,987.3906 Q64.7813,987.9688 63.9844,988.2969 Q62.9063,988.75 61.6094,988.75 Q60.0938,988.75 58.8906,988.125 Q57.9063,987.625 57.2188,986.5547 Q56.5313,985.4844 56.5313,984.2031 L56.5313,983.0469 Q56.5313,981.7188 57.1484,980.5703 Q57.7656,979.4219 58.8594,978.8047 Q59.9531,978.1875 61.1875,978.1875 Q61.9219,978.1875 62.5703,978.3516 Q63.2188,978.5156 63.7656,978.875 Z "/><text fill="#000000" font-family="sans-serif" font-size="12" lengthAdjust="spacingAndGlyphs" textLength="38" x="75" y="987.9102">Widget</text><line style="stroke: #A80036; stroke-width: 1.5;" x1="47" x2="115" y1="999" y2="999"/><line style="stroke: #A80036; stroke-width: 1.5;" x1="47" x2="115" y1="1007" y2="1007"/><!--link Class to BaseWidget--><path d="M81,76.669 C81,89.307 81,103.11 81,115.782 " fill="none" id="Class-BaseWidget" style="stroke: #A80036; stroke-width: 1.0;"/><polygon fill="none" points="74.0001,76.294,81,56.294,88.0001,76.294,74.0001,76.294" style="stroke: #A80036; stroke-width: 1.0;"/><!--link BaseWidget to UIWidget--><path d="M81,226.374 C81,238.715 81,252.084 81,265.783 " fill="none" id="BaseWidget-UIWidget" style="stroke: #A80036; stroke-width: 1.0;"/><polygon fill="none" points="74.0001,226.069,81,206.069,88.0001,226.069,74.0001,226.069" style="stroke: #A80036; stroke-width: 1.0;"/><!--link UIWidget to DataWidget--><path d="M81,573.539 C81,587.22 81,600.488 81,612.74 " fill="none" id="UIWidget-DataWidget" style="stroke: #A80036; stroke-width: 1.0;"/><polygon fill="none" points="74.0001,573.27,81,553.27,88.0001,573.27,74.0001,573.27" style="stroke: #A80036; stroke-width: 1.0;"/><!--link DataWidget to ServerWidget--><path d="M81,768.561 C81,782.122 81,795.697 81,807.983 " fill="none" id="DataWidget-ServerWidget" style="stroke: #A80036; stroke-width: 1.0;"/><polygon fill="none" points="74.0001,768.159,81,748.159,88.0001,768.159,74.0001,768.159" style="stroke: #A80036; stroke-width: 1.0;"/><!--link ServerWidget to Widget--><path d="M81,927.2257 C81,941.5804 81,955.7456 81,966.9769 " fill="none" id="ServerWidget-Widget" style="stroke: #A80036; stroke-width: 1.0;"/><polygon fill="none" points="74.0001,927.0922,81,907.092,88.0001,927.0921,74.0001,927.0922" style="stroke: #A80036; stroke-width: 1.0;"/><!--
@startuml
Class <|- - BaseWidget
BaseWidget <|- - UIWidget
UIWidget <|- - DataWidget
DataWidget <|- - ServerWidget
ServerWidget <|- - Widget

class BaseWidget {
    state
    on()
    trigger()
}

class UIWidget {
    .. properties ..
    #node
    .. methods ..
    hide()
    show()
    toggle()
    toggle_busy()
    wiget() : jQuery
    ready(fn)

    construct()
    draw(data)
    reflow()
    .. static ..
    {static} create_on(location, attrs)
    {static} create_inside(location, attrs)
    {static} append_to(location, attrs)    
}

class DataWidget {
    .. properties ..
    #data
    .. signals ..
    +change
    .. methods ..
    data_changed(...)
}

class ServerWidget {
    cache
    .. methods ..
    refresh()
    fetch_json_data()
}
@enduml

PlantUML version 1.2018.11(Sat Sep 22 18:43:53 CEST 2018)
(GPL source distribution)
Java Runtime: Java(TM) SE Runtime Environment
JVM: Java HotSpot(TM) Client VM
Java Version: 1.8.0_221-b11
Operating System: Windows 10
OS Version: 10.0
Default Encoding: Cp1252
Language: en
Country: US
--></g></svg>